<?xml version="1.0" standalone="no"?>
<!DOCTYPE svg PUBLIC "-//W3C//DTD SVG 20010904//EN"
 "http://www.w3.org/TR/2001/REC-SVG-20010904/DTD/svg10.dtd">
<svg version="1.0" xmlns="http://www.w3.org/2000/svg"
 width="3840.000000pt" height="2400.000000pt" viewBox="0 0 3840.000000 2400.000000"
 preserveAspectRatio="xMidYMid meet">

<g transform="translate(0.000000,2400.000000) scale(0.100000,-0.100000)"
fill="#000000" stroke="none">
<path d="M1817 20384 c-81 -12 -142 -26 -337 -78 -41 -11 -188 -69 -207 -82
-13 -8 -23 -12 -23 -8 0 6 -192 -94 -200 -105 -3 -3 -22 -15 -42 -26 -21 -11
-38 -22 -38 -25 0 -3 -12 -11 -27 -17 -72 -32 -308 -242 -422 -374 -88 -102
-99 -117 -172 -229 -145 -220 -257 -486 -303 -720 -12 -64 -26 -139 -33 -185
-4 -27 -9 -2861 -10 -6296 -3 -5880 -1 -6348 22 -6469 3 -13 7 -42 11 -65 10
-72 55 -236 90 -334 31 -84 131 -299 167 -356 30 -49 109 -168 118 -179 5 -6
29 -38 54 -70 125 -165 356 -370 557 -493 120 -74 350 -179 453 -207 6 -2 17
-6 25 -9 41 -16 125 -35 132 -31 4 3 8 1 8 -3 0 -5 10 -10 23 -10 12 -1 58 -9
102 -18 44 -8 141 -20 215 -25 172 -13 34323 -12 34460 1 174 16 188 18 277
40 48 11 99 23 112 25 13 3 49 14 80 25 31 11 74 26 96 33 22 7 60 22 85 33
25 12 78 36 118 53 39 18 72 37 72 41 0 5 3 8 8 7 19 -5 218 125 332 217 98
80 279 269 348 365 34 47 66 90 71 95 75 95 243 449 266 565 2 8 4 15 5 15 1
0 3 7 5 15 2 8 11 41 20 74 9 32 18 70 20 85 2 14 8 46 14 71 5 25 15 101 21
170 16 174 8 12554 -8 12655 -6 39 -13 87 -17 109 -3 21 -7 42 -10 46 -2 4 -6
20 -9 36 -25 137 -106 361 -188 514 -50 94 -162 272 -189 300 -8 8 -27 33 -44
55 -48 66 -224 243 -310 312 -153 124 -332 232 -520 315 -65 28 -301 104 -350
112 -16 3 -41 7 -55 11 -156 36 513 35 -17495 34 -14819 -1 -17294 -3 -17378
-15z m6623 -6764 l0 -4210 -22 -5 c-145 -32 -697 -120 -969 -155 -818 -104
-1641 -115 -2234 -29 -618 89 -1138 287 -1530 584 -593 447 -912 1105 -975
2005 -54 784 119 1515 489 2072 114 170 199 276 331 408 401 404 949 680 1570
794 251 46 414 60 720 60 344 1 459 -11 778 -81 l22 -5 0 1379 c0 759 3 1383
7 1386 3 4 413 7 910 7 l903 0 0 -4210z m2898 3262 l2 -932 -912 2 -913 3 -3
920 c-1 506 0 926 3 933 3 10 191 12 912 10 l908 -3 3 -933z m22192 -1740
c857 -119 1509 -500 1927 -1127 384 -574 554 -1355 483 -2215 -65 -775 -351
-1442 -819 -1911 -445 -444 -1015 -701 -1751 -789 -125 -15 -597 -21 -730 -9
-1083 95 -1868 587 -2294 1436 -286 572 -395 1318 -300 2073 160 1281 900
2164 2064 2462 166 42 402 82 571 97 179 16 682 6 849 -17z m-18392 -2 c602
-43 1025 -189 1308 -452 197 -184 312 -414 364 -728 44 -262 44 -244 47 -2477
l4 -2141 -28 -6 c-29 -5 -183 -27 -333 -46 -467 -58 -1153 -116 -1635 -137
-293 -13 -933 -10 -1085 5 -609 60 -1031 222 -1310 502 -227 226 -351 504
-401 895 -17 138 -15 479 5 610 104 685 498 1112 1293 1401 386 140 987 260
1603 319 91 8 179 18 195 20 l30 5 -1 246 c-2 152 -7 265 -15 297 -34 147
-115 223 -286 268 -63 17 -117 22 -288 26 -629 15 -1346 -153 -2004 -468 -90
-44 -166 -79 -168 -79 -1 0 -3 316 -3 703 l0 703 98 44 c679 303 1303 454
2042 493 141 8 435 6 568 -3z m5817 -1 c821 -55 1393 -290 1749 -719 256 -308
364 -647 396 -1245 6 -114 10 -936 10 -2067 l0 -1878 -910 0 -909 0 -4 1863
c-2 1698 -4 1870 -20 1953 -38 208 -96 334 -197 434 -141 141 -340 200 -671
200 -252 0 -405 -20 -681 -87 l-148 -37 -2 -2160 -3 -2161 -908 0 -907 0 0
2749 c0 1512 1 2751 3 2752 2 2 102 28 222 58 829 207 1583 323 2280 349 164
6 580 4 700 -4z m7416 -14 c493 -32 827 -70 1279 -145 259 -44 540 -97 547
-104 5 -4 -59 -141 -390 -836 -82 -173 -167 -352 -187 -396 l-38 -82 -94 20
c-51 10 -142 21 -202 23 l-109 4 7 -375 c4 -206 9 -383 11 -392 2 -10 6 -263
9 -562 4 -300 8 -597 11 -660 22 -542 25 -1536 5 -1990 -45 -1044 -187 -1620
-527 -2128 -277 -414 -636 -725 -1086 -937 -499 -235 -1108 -352 -1832 -352
-648 0 -1187 85 -1751 278 -80 27 -160 55 -179 63 l-35 15 0 835 c0 460 3 836
8 836 4 0 61 -27 128 -59 66 -33 194 -88 285 -124 496 -196 935 -283 1464
-292 246 -4 372 3 555 30 797 117 1174 573 1207 1463 3 94 4 172 1 172 -2 0
-31 -13 -64 -29 -212 -102 -489 -174 -779 -201 -142 -13 -511 -13 -645 0
-1031 101 -1773 652 -2114 1571 -72 195 -136 484 -167 754 -20 167 -17 627 5
805 129 1069 662 1833 1611 2308 568 284 1345 462 2130 489 99 3 182 8 185 10
6 5 635 -5 751 -12z m-17032 -2347 c-1 -1234 -5 -2369 -10 -2523 -29 -1114
-140 -1681 -442 -2245 -291 -545 -648 -873 -1363 -1250 l-101 -53 -499 237
c-274 130 -653 310 -841 399 -188 89 -343 164 -343 167 0 3 84 47 187 99 407
206 662 382 884 608 170 173 290 351 395 583 161 356 232 706 281 1376 14 201
17 513 20 2524 2 1262 5 2301 8 2308 3 9 196 12 915 12 l910 0 -1 -2242z"/>
<path d="M5739 13665 c-325 -44 -591 -174 -793 -385 -268 -281 -397 -691 -383
-1215 7 -261 32 -415 98 -602 171 -486 551 -764 1128 -824 144 -15 462 -7 674
17 l157 17 0 1458 0 1458 -62 19 c-84 26 -203 50 -313 62 -122 13 -389 11
-506 -5z"/>
<path d="M32885 13699 c-355 -32 -639 -227 -807 -554 -92 -179 -148 -372 -185
-632 -22 -151 -24 -589 -4 -743 86 -676 370 -1079 843 -1196 90 -22 321 -30
427 -14 395 58 678 323 826 773 166 504 150 1226 -37 1696 -190 476 -568 714
-1063 670z"/>
<path d="M15030 11684 c-891 -109 -1240 -265 -1325 -591 -19 -74 -19 -242 0
-316 45 -172 162 -274 381 -329 82 -21 111 -23 369 -23 165 0 325 6 390 13
134 16 382 51 413 59 l22 5 0 604 0 604 -27 -1 c-16 -1 -116 -12 -223 -25z"/>
<path d="M26953 13659 c-187 -22 -423 -83 -577 -151 -592 -258 -866 -748 -843
-1508 17 -572 211 -971 574 -1184 323 -189 808 -214 1292 -64 l64 20 -7 839
c-4 462 -9 847 -10 857 -2 9 -7 284 -11 610 l-7 592 -202 -1 c-110 -1 -234 -5
-273 -10z"/>
</g>
</svg>
